<?xml version="1.0" encoding="utf-8"?>
<!-- Generator: Adobe Illustrator 27.0.0, SVG Export Plug-In . SVG Version: 6.00 Build 0)  -->
<svg version="1.1" id="Layer_1" xmlns="http://www.w3.org/2000/svg" xmlns:xlink="http://www.w3.org/1999/xlink" x="0px" y="0px"
	 viewBox="0 0 8 8" style="enable-background:new 0 0 8 8;" xml:space="preserve">
<style type="text/css">
	.st0{fill:url(#SVGID_1_);}
</style>
<g transform="translate(-236,-176)">
	<g>
		
			<image style="overflow:visible;enable-background:new    ;" width="16" height="16" xlink:href="D8D370F5.png"  transform="matrix(0.5 0 0 0.5 236 176)">
		</image>
		
			<linearGradient id="SVGID_1_" gradientUnits="userSpaceOnUse" x1="478.7763" y1="9.2431" x2="472.775" y2="3.2418" gradientTransform="matrix(1 0 0 -1 -236 186)">
			<stop  offset="0" style="stop-color:#FFA100"/>
			<stop  offset="1" style="stop-color:#B400FF"/>
		</linearGradient>
		<path class="st0" d="M242.9,176.9c0,0.1-0.1,0.8-0.2,1.2l-0.1,0.3l-0.2,0c-0.3,0-0.5,0-0.7,0.1l-0.1,0.1l0.3,0.1
			c0.2,0,0.4,0.1,0.4,0.2c0.2,0.1,0.2,0.1,0.1,0.5l-0.1,0.3l-0.4,0c-0.4,0-0.6,0.1-0.8,0.2c-0.1,0-0.1,0,0,0.1c0,0,0.1,0,0.2,0
			c0.3,0,0.6,0.1,0.7,0.2c0.1,0.1,0,0.1-0.3,0.5c-0.8,0.9-2.1,1.5-3.2,1.5h-0.3l-0.3,0.4c-0.3,0.4-0.6,0.7-0.7,0.8c0,0-0.1,0-0.1,0
			c-0.2-0.1,0-0.6,0.3-1.1c0.5-0.8,0.9-1.3,1.6-2.1c0.7-0.8,1.3-1.3,2.2-1.9c0.5-0.4,0.6-0.5,0.4-0.5c-0.2,0-1.3,0.7-1.9,1.2
			c-0.4,0.3-1.2,1.2-1.6,1.6c-0.4,0.4-0.5,0.7-0.8,1.1c-0.1,0.2-0.2,0.3-0.2,0.2c0,0,0-0.2-0.1-0.4c-0.1-0.7,0.1-1.5,0.6-2.1
			c0.4-0.5,1-1,1.6-1.3c0.4-0.2,0.4-0.2,0.4,0.1c0,0.2,0,0.2,0,0.2c0.1-0.1,0.4-0.5,0.3-0.6c0-0.1,0-0.1,0.4-0.2
			c0.4-0.1,1.1-0.3,1.7-0.4C242.9,176.8,242.9,176.8,242.9,176.9L242.9,176.9z"/>
	</g>
</g>
</svg>
